<?xml version="1.0" encoding="UTF-8"?>
<svg xmlns="http://www.w3.org/2000/svg" xmlns:xlink="http://www.w3.org/1999/xlink" width="851pt" height="185pt" viewBox="0 0 851 185" version="1.1">
<g id="surface1">
<path style=" stroke:none;fill-rule:nonzero;fill:rgb(7.058716%,9.803772%,40.391541%);fill-opacity:1;" d="M 200.582031 127.996094 L 225.382813 127.996094 C 233.328125 127.996094 239.421875 126.25 243.683594 122.75 C 247.886719 119.296875 250.039063 114.546875 250.039063 108.4375 C 250.039063 99.65625 246.527344 94.042969 239.257813 91.859375 L 239.257813 90.761719 C 245.386719 88.832031 247.796875 84.128906 247.796875 76.261719 C 247.796875 70.710938 245.964844 65.863281 241.972656 62.5625 C 237.925781 59.214844 231.644531 57.972656 223.460938 57.972656 L 200.582031 57.972656 Z M 226.078125 96.023438 C 235.539063 96.078125 240.25 100.167969 240.25 108.292969 C 240.300781 115.667969 235.640625 119.375 226.285156 119.375 C 220.890625 119.375 215.492188 119.375 210.097656 119.375 L 210.097656 96.023438 C 215.425781 96.023438 220.753906 96.023438 226.078125 96.023438 Z M 224.984375 66.417969 C 234.113281 66.417969 238.082031 69.882813 238.082031 76.824219 C 238.082031 83.894531 233.964844 87.445313 225.664063 87.445313 L 210.097656 87.445313 L 210.097656 66.417969 L 224.984375 66.417969 "/>
<path style=" stroke:none;fill-rule:nonzero;fill:rgb(7.058716%,9.803772%,40.391541%);fill-opacity:1;" d="M 275.09375 79.476563 C 268.015625 79.476563 262.039063 81.015625 257.265625 84.144531 L 260.664063 91.59375 C 264.566406 89.175781 269.605469 87.25 274.328125 87.25 C 283.589844 87.25 284.875 91.851563 284.875 99.054688 L 284.25 99.054688 C 281.203125 97.566406 277.636719 96.867188 273.539063 96.867188 C 264.105469 96.867188 254.765625 103.023438 254.765625 113.226563 C 254.765625 118.402344 256.589844 122.308594 260.261719 124.933594 C 263.914063 127.570313 268.691406 128.910156 274.617188 128.910156 C 282.433594 128.910156 288.886719 126.726563 294.054688 122.410156 L 294.054688 96.121094 C 294.054688 85.582031 287.308594 79.476563 275.09375 79.476563 Z M 274.617188 105.511719 C 277.890625 105.511719 281.132813 106.265625 284.3125 107.757813 L 284.3125 117.449219 C 281.808594 119.546875 278.515625 120.585938 274.515625 120.585938 C 267.914063 120.585938 264.640625 118.054688 264.640625 113.046875 C 264.640625 108.042969 267.964844 105.511719 274.617188 105.511719 "/>
<path style=" stroke:none;fill-rule:nonzero;fill:rgb(7.058716%,9.803772%,40.391541%);fill-opacity:1;" d="M 304.226563 127.996094 L 314.070313 127.996094 L 314.070313 98.75 C 314.070313 91.457031 317.59375 87.828125 324.144531 87.828125 C 329.96875 87.828125 333.429688 90.324219 333.429688 97.363281 L 333.429688 127.996094 L 342.710938 127.996094 L 342.710938 97.542969 C 342.710938 91.976563 341.34375 87.601563 338.5625 84.414063 C 335.796875 81.242188 331.847656 79.003906 326.84375 79.003906 C 321.066406 79.003906 316.101563 80.4375 313.628906 84.296875 L 313.003906 84.277344 L 313.003906 80.488281 L 304.226563 80.488281 L 304.226563 127.996094 "/>
<path style=" stroke:none;fill-rule:nonzero;fill:rgb(7.058716%,9.803772%,40.391541%);fill-opacity:1;" d="M 372.039063 79.476563 C 365.339844 79.476563 359.992188 81.757813 355.992188 86.242188 C 351.992188 90.792969 350.015625 96.796875 350.015625 104.242188 C 350.015625 111.738281 351.992188 117.792969 355.992188 122.292969 C 359.992188 126.828125 365.339844 129.113281 372.140625 129.113281 C 380.105469 129.113281 385.933594 125.746094 389.554688 119.078125 L 382.316406 114.097656 C 379.964844 117.921875 376.238281 119.859375 372.140625 119.859375 C 364.46875 119.859375 359.9375 113.816406 359.9375 104.242188 C 359.9375 94.71875 364.664063 88.09375 372.039063 88.0625 C 376.136719 88.046875 380.0625 90.335938 382.367188 94.058594 L 389.355469 89.203125 C 385.785156 82.738281 380.007813 79.476563 372.039063 79.476563 "/>
<path style=" stroke:none;fill-rule:nonzero;fill:rgb(7.058716%,9.803772%,40.391541%);fill-opacity:1;" d="M 399.46875 86.378906 C 395.371094 90.980469 393.347656 96.949219 393.347656 104.210938 C 393.347656 111.484375 395.371094 117.40625 399.46875 122.007813 C 403.566406 126.625 409.097656 128.890625 416.09375 128.890625 C 423.074219 128.890625 428.570313 126.625 432.671875 122.007813 C 436.738281 117.40625 438.761719 111.484375 438.761719 104.210938 C 438.761719 96.949219 436.738281 90.980469 432.671875 86.378906 C 428.570313 81.757813 423.074219 79.492188 416.09375 79.492188 C 409.097656 79.492188 403.566406 81.757813 399.46875 86.378906 Z M 406.074219 115.882813 C 403.601563 113.011719 402.402344 109.105469 402.402344 104.175781 C 402.402344 99.28125 403.601563 95.371094 406.074219 92.5 C 408.53125 89.613281 411.847656 88.171875 416.097656 88.171875 C 420.292969 88.171875 423.589844 89.613281 426.0625 92.5 C 428.539063 95.371094 429.738281 99.28125 429.738281 104.175781 C 429.738281 109.105469 428.539063 113.011719 426.0625 115.882813 C 423.589844 118.769531 420.292969 120.214844 416.097656 120.214844 C 411.847656 120.214844 408.53125 118.769531 406.074219 115.882813 "/>
<path style=" stroke:none;fill-rule:nonzero;fill:rgb(7.058716%,9.803772%,40.391541%);fill-opacity:1;" d="M 467.914063 128.074219 L 477.515625 127.996094 L 477.515625 79.699219 L 478.699219 79.777344 L 499.816406 112.355469 L 505.433594 112.355469 L 526.652344 79.863281 L 527.324219 79.863281 L 527.324219 128.074219 L 537.074219 128.074219 L 537.074219 57.832031 L 530.535156 57.832031 L 503.128906 99.878906 L 502.640625 99.878906 L 474.953125 57.832031 L 467.914063 57.832031 L 467.914063 128.074219 "/>
<path style=" stroke:none;fill-rule:nonzero;fill:rgb(7.058716%,9.803772%,40.391541%);fill-opacity:1;" d="M 599.097656 128.25 L 608.738281 128.25 L 608.738281 100.585938 C 608.738281 93.292969 612.101563 88.625 618.835938 88.625 C 624.824219 88.625 628.40625 92.160156 628.40625 99.199219 L 628.40625 128.25 L 637.921875 128.25 L 637.921875 97.796875 C 637.921875 92.230469 636.511719 87.855469 633.65625 84.667969 C 630.8125 81.492188 626.753906 79.296875 621.609375 79.296875 C 615.671875 79.296875 611.457031 80.582031 608.921875 84.4375 L 608.277344 84.421875 L 608.277344 80.203125 L 599.097656 80.203125 L 599.097656 128.25 "/>
<path style=" stroke:none;fill-rule:nonzero;fill:rgb(7.058716%,9.803772%,40.391541%);fill-opacity:1;" d="M 642.933594 89.199219 L 648.871094 89.199219 L 648.871094 114.222656 C 648.871094 124.78125 653.085938 128.941406 662.78125 128.941406 C 665.554688 128.941406 667.277344 128.65625 669.121094 128.0625 L 669.121094 119.859375 C 667.378906 120.113281 665.9375 120.265625 664.855469 120.265625 C 662.519531 120.265625 660.828125 119.757813 659.898438 118.828125 C 658.953125 117.882813 658.460938 115.40625 658.460938 112.632813 L 658.460938 89.199219 L 668.613281 89.199219 L 668.613281 80.761719 L 658.460938 80.761719 L 658.460938 66.410156 L 648.871094 66.410156 L 648.871094 80.761719 L 642.933594 80.761719 L 642.933594 89.199219 "/>
<path style=" stroke:none;fill-rule:nonzero;fill:rgb(7.058716%,9.803772%,40.391541%);fill-opacity:1;" d="M 694.558594 79.253906 C 687.800781 79.253906 682.34375 81.585938 678.277344 86.238281 C 674.210938 90.960938 672.152344 96.847656 672.152344 104.035156 C 672.152344 111.277344 674.210938 117.199219 678.277344 121.785156 C 682.34375 126.402344 687.984375 128.6875 695.144531 128.6875 C 703.425781 128.6875 710.371094 125.40625 714.253906 120.800781 L 709.441406 114.476563 C 705.726563 118.082031 700.3125 120.359375 695.410156 120.359375 C 687.378906 120.359375 682.726563 114.882813 681.789063 106.660156 L 715.324219 106.660156 C 715.574219 105.324219 715.726563 103.476563 715.726563 101.261719 C 715.726563 94.765625 713.800781 89.523438 709.9375 85.410156 C 706.070313 81.28125 700.917969 79.253906 694.558594 79.253906 Z M 694.890625 87.800781 C 700.847656 87.800781 705.40625 92.148438 705.769531 98.316406 L 682.703125 98.316406 C 683.039063 92.507813 688.285156 87.800781 694.890625 87.800781 "/>
<path style=" stroke:none;fill-rule:nonzero;fill:rgb(7.058716%,9.803772%,40.391541%);fill-opacity:1;" d="M 732.230469 125.035156 L 732.871094 125.035156 C 736.085938 127.757813 740.351563 129.144531 745.5625 129.144531 C 751.753906 129.144531 756.761719 126.929688 760.535156 122.410156 C 764.257813 117.910156 766.136719 111.972656 766.136719 104.5625 C 766.136719 96.816406 764.054688 90.742188 759.925781 86.328125 C 755.816406 81.929688 750.269531 79.15625 743.046875 79.15625 C 736.1875 79.15625 728.324219 81.59375 722.933594 86.003906 L 722.933594 147.613281 L 732.230469 147.613281 Z M 743.328125 120.359375 C 739.066406 120.359375 735.359375 118.921875 732.230469 116.097656 L 732.230469 91.296875 C 735.207031 89.371094 738.726563 88.40625 742.789063 88.421875 C 752.550781 88.464844 756.148438 94.683594 756.148438 104.5625 C 756.148438 114.75 751.601563 120.359375 743.328125 120.359375 "/>
<path style=" stroke:none;fill-rule:nonzero;fill:rgb(7.058716%,9.803772%,40.391541%);fill-opacity:1;" d="M 772.601563 65.84375 C 772.601563 69.613281 775.28125 72.296875 778.855469 72.296875 C 782.425781 72.296875 785.105469 69.613281 785.105469 65.84375 C 785.105469 62.078125 782.410156 59.386719 778.855469 59.386719 C 775.296875 59.386719 772.601563 62.078125 772.601563 65.84375 "/>
<path style=" stroke:none;fill-rule:nonzero;fill:rgb(7.058716%,9.803772%,40.391541%);fill-opacity:1;" d="M 773.960938 128.25 L 783.929688 128.25 L 783.929688 80.5 L 773.960938 80.5 L 773.960938 128.25 "/>
<path style=" stroke:none;fill-rule:nonzero;fill:rgb(7.058716%,9.803772%,40.391541%);fill-opacity:1;" d="M 551.597656 85.933594 C 547.433594 90.625 545.378906 96.710938 545.378906 104.109375 C 545.378906 111.523438 547.433594 117.558594 551.597656 122.246094 C 555.761719 126.953125 561.382813 129.265625 568.488281 129.265625 C 575.578125 129.265625 581.164063 126.953125 585.328125 122.246094 C 589.460938 117.558594 591.515625 111.523438 591.515625 104.109375 C 591.515625 96.710938 589.460938 90.625 585.328125 85.933594 C 581.164063 81.226563 575.578125 78.914063 568.488281 78.914063 C 561.382813 78.914063 555.761719 81.226563 551.597656 85.933594 Z M 558.308594 116.003906 C 555.796875 113.082031 554.578125 109.097656 554.578125 104.074219 C 554.578125 99.085938 555.796875 95.101563 558.308594 92.175781 C 560.804688 89.234375 564.175781 87.761719 568.492188 87.761719 C 572.753906 87.761719 576.101563 89.234375 578.617188 92.175781 C 581.128906 95.101563 582.351563 99.085938 582.351563 104.074219 C 582.351563 109.097656 581.128906 113.082031 578.617188 116.003906 C 576.101563 118.949219 572.753906 120.417969 568.492188 120.417969 C 564.175781 120.417969 560.804688 118.949219 558.308594 116.003906 "/>
<path style=" stroke:none;fill-rule:nonzero;fill:rgb(7.058716%,9.803772%,40.391541%);fill-opacity:1;" d="M 797.585938 85.933594 C 793.421875 90.625 791.363281 96.710938 791.363281 104.109375 C 791.363281 111.523438 793.421875 117.558594 797.585938 122.246094 C 801.75 126.953125 807.367188 129.265625 814.476563 129.265625 C 821.566406 129.265625 827.152344 126.953125 831.316406 122.246094 C 835.445313 117.558594 837.503906 111.523438 837.503906 104.109375 C 837.503906 96.710938 835.445313 90.625 831.316406 85.933594 C 827.152344 81.226563 821.566406 78.914063 814.476563 78.914063 C 807.367188 78.914063 801.75 81.226563 797.585938 85.933594 Z M 804.296875 116.003906 C 801.785156 113.082031 800.5625 109.097656 800.5625 104.074219 C 800.5625 99.085938 801.785156 95.101563 804.296875 92.175781 C 806.792969 89.234375 810.160156 87.761719 814.476563 87.761719 C 818.738281 87.761719 822.089844 89.234375 824.605469 92.175781 C 827.117188 95.101563 828.339844 99.085938 828.339844 104.074219 C 828.339844 109.097656 827.117188 113.082031 824.605469 116.003906 C 822.089844 118.949219 818.738281 120.417969 814.476563 120.417969 C 810.160156 120.417969 806.792969 118.949219 804.296875 116.003906 "/>
<path style=" stroke:none;fill-rule:evenodd;fill:rgb(96.469116%,82.351685%,14.117432%);fill-opacity:1;" d="M 12.890625 23.203125 L 142.636719 23.203125 L 52.496094 55.976563 C 47.542969 57.777344 44.445313 58.109375 39.511719 58.601563 C 30.304688 59.519531 20.679688 64.960938 12.890625 75.148438 Z M 153.023438 28.664063 L 153.023438 162.542969 L 114.648438 162.542969 C 109.839844 156.160156 102.519531 150.261719 93.195313 144.816406 C 82.757813 138.71875 72.339844 132.53125 61.859375 126.523438 C 56.429688 123.410156 51.515625 120.714844 48.621094 114.351563 C 47.402344 111.675781 46.5625 108.167969 47.421875 103.398438 C 47.90625 100.703125 49.933594 101.40625 52.28125 103.058594 C 58.253906 107.257813 65.148438 107.660156 72.160156 104.71875 C 101.027344 92.617188 122.980469 72.472656 143.027344 42.53125 C 146.027344 38.050781 145.179688 36.707031 140.074219 38.558594 L 60.332031 67.503906 C 51.695313 70.640625 46.199219 74.632813 44.28125 84.320313 L 43.171875 84.257813 C 43.921875 72.738281 49.558594 66.574219 60.835938 62.441406 Z M 57.460938 162.542969 L 12.890625 162.542969 L 12.890625 113.0625 C 16.789063 125.40625 21.230469 130.757813 27.585938 136.417969 C 37.429688 145.175781 47.511719 153.859375 57.460938 162.542969 Z M 39.257813 69.027344 C 40.128906 70.023438 39.707031 71.816406 38.316406 73.035156 C 36.925781 74.257813 35.089844 74.441406 34.21875 73.445313 C 33.347656 72.453125 33.769531 70.65625 35.160156 69.4375 C 36.550781 68.21875 38.386719 68.035156 39.257813 69.027344 "/>
</g>
</svg>
