<svg width="222" height="45" xmlns="http://www.w3.org/2000/svg">

 <title>comparaja</title>
 <g>
  <title>Layer 1</title>
  <g id="main">
   <path id="svg_1" fill="#76a334" d="m202.02011,27.46l2.1,0l0,2.16l-2.1,0l0,-2.16z" class="cls-1"/>
   <path id="svg_2" fill="#13679a" d="m138.81011,14.08a6.31,6.31 0 0 0 -2.36,1.62a7.35,7.35 0 0 0 -1.53,2.69a12.08,12.08 0 0 0 -0.53,3.73l0,7.79l-4.43,0l0,-20.58l4.43,0l0,5.6l0.43,-1a9.14,9.14 0 0 1 2.77,-3.74a6.48,6.48 0 0 1 4.28,-1.28l0,4.67l-0.06,0a8.33,8.33 0 0 0 -3,0.53" class="cls-2"/>
   <path id="svg_3" fill="#13679a" d="m123.82011,22.52a4.15,4.15 0 0 1 -0.45,1.92a4.35,4.35 0 0 1 -1.24,1.47a6.07,6.07 0 0 1 -1.85,0.93a7.64,7.64 0 0 1 -2.29,0.33a5.27,5.27 0 0 1 -3,-0.84a2.83,2.83 0 0 1 -1.28,-2.5l0,-0.08a3,3 0 0 1 1.31,-2.58a6.48,6.48 0 0 1 3.69,-0.92a14.65,14.65 0 0 1 2.7,0.25a12.77,12.77 0 0 1 2.22,0.61l0.15,0.06l0.04,1.35zm2,-11.28c-1.47,-1.51 -3.77,-2.27 -6.84,-2.27a17.79,17.79 0 0 0 -4.38,0.47a21.49,21.49 0 0 0 -3.38,1.18l1.17,3.46a20,20 0 0 1 2.65,-0.88a12.94,12.94 0 0 1 3.26,-0.37a6,6 0 0 1 4,1.21a4.44,4.44 0 0 1 1.42,3.53l0,0.7l-0.3,-0.09a18.63,18.63 0 0 0 -2.55,-0.63a18.41,18.41 0 0 0 -3.22,-0.24a13.28,13.28 0 0 0 -3.36,0.41a7.73,7.73 0 0 0 -2.65,1.24a5.77,5.77 0 0 0 -1.71,2.08a6.61,6.61 0 0 0 -0.62,3l0,0.08a5.84,5.84 0 0 0 2.18,4.68a7,7 0 0 0 2.31,1.2a9.55,9.55 0 0 0 2.81,0.41a8.51,8.51 0 0 0 4,-0.86a8.8,8.8 0 0 0 2.69,-2.1l0.4,-0.47l0,3l4.32,0l0,-12.33a8.82,8.82 0 0 0 -2.22,-6.41" class="cls-2"/>
   <path id="svg_4" fill="#13679a" d="m155.63011,22.52a4.27,4.27 0 0 1 -0.44,1.92a4.35,4.35 0 0 1 -1.24,1.47a6.07,6.07 0 0 1 -1.85,0.93a7.64,7.64 0 0 1 -2.29,0.33a5.27,5.27 0 0 1 -3,-0.84a2.83,2.83 0 0 1 -1.28,-2.5l0,-0.08a3,3 0 0 1 1.38,-2.58a6.48,6.48 0 0 1 3.69,-0.92a14.65,14.65 0 0 1 2.7,0.25a12.77,12.77 0 0 1 2.22,0.61l0.14,0.06l-0.03,1.35zm2,-11.28c-1.47,-1.51 -3.77,-2.27 -6.84,-2.27a17.93,17.93 0 0 0 -4.39,0.47a21.74,21.74 0 0 0 -3.38,1.18l1.17,3.46a19.12,19.12 0 0 1 2.65,-0.88a12.88,12.88 0 0 1 3.26,-0.37a6,6 0 0 1 4,1.21a4.44,4.44 0 0 1 1.41,3.53l0,0.7l-0.29,-0.09a18.63,18.63 0 0 0 -2.55,-0.63a18.41,18.41 0 0 0 -3.22,-0.24a13.36,13.36 0 0 0 -3.37,0.41a7.59,7.59 0 0 0 -2.64,1.24a5.67,5.67 0 0 0 -1.71,2.08a6.61,6.61 0 0 0 -0.62,3l0,0.08a5.79,5.79 0 0 0 2.17,4.68a7.14,7.14 0 0 0 2.31,1.2a9.66,9.66 0 0 0 2.82,0.41a8.54,8.54 0 0 0 4,-0.86a8.8,8.8 0 0 0 2.69,-2.1l0.39,-0.47l0,3l4.36,0l0,-12.33a8.82,8.82 0 0 0 -2.22,-6.41" class="cls-2"/>
   <path id="svg_5" fill="#13679a" d="m102.39011,14.5a6,6 0 0 0 -2,-1.41a6.26,6.26 0 0 0 -4.88,0a6,6 0 0 0 -2,1.43a7.15,7.15 0 0 0 -1.38,2.2a7.64,7.64 0 0 0 -0.52,2.84l0,0.08a7.74,7.74 0 0 0 0.52,2.86a6.71,6.71 0 0 0 1.39,2.21a6.1,6.1 0 0 0 2,1.4a6.21,6.21 0 0 0 2.45,0.5a6.12,6.12 0 0 0 4.42,-1.88a6.44,6.44 0 0 0 1.35,-2.19a8.13,8.13 0 0 0 0.5,-2.9l0,-0.08a7.93,7.93 0 0 0 -0.5,-2.85a6.77,6.77 0 0 0 -1.34,-2.21m6.27,5.14a12.37,12.37 0 0 1 -0.8,4.59a10.37,10.37 0 0 1 -2.15,3.36a9.06,9.06 0 0 1 -3.08,2.06a9.39,9.39 0 0 1 -3.62,0.68a7.53,7.53 0 0 1 -4.18,-1.09a10.65,10.65 0 0 1 -2.78,-2.54l-0.41,-0.53l0,10.16l-4.43,0l0,-27l4.43,0l0,4l0.41,-0.6a10.26,10.26 0 0 1 2.82,-2.75a7.36,7.36 0 0 1 4.14,-1.1a9.25,9.25 0 0 1 3.55,0.7a9.08,9.08 0 0 1 3.06,2.06a10.3,10.3 0 0 1 2.17,3.37a12.07,12.07 0 0 1 0.82,4.58l0.05,0.05z" class="cls-2"/>
   <path id="svg_6" fill="#13679a" d="m78.16011,8.85a7.84,7.84 0 0 0 -4,1a10.42,10.42 0 0 0 -3,2.66l-0.22,0.29l-0.16,-0.32a6.58,6.58 0 0 0 -2.33,-2.63a6.71,6.71 0 0 0 -3.73,-1a7.32,7.32 0 0 0 -2.11,0.29a6.13,6.13 0 0 0 -1.69,0.8a7.85,7.85 0 0 0 -1.34,1.13a14.38,14.38 0 0 0 -1.1,1.35l-0.41,0.57l0,-3.66l-4.43,0l0,20.58l4.43,0l0,-11.58a5.86,5.86 0 0 1 1.3,-4a4.38,4.38 0 0 1 3.43,-1.47a4.15,4.15 0 0 1 3.32,1.39a6,6 0 0 1 1.17,3.93l0,11.73l4.43,0l0,-11.64a5.68,5.68 0 0 1 1.31,-4a4.49,4.49 0 0 1 3.42,-1.41a4.13,4.13 0 0 1 3.31,1.39a6,6 0 0 1 1.17,4l0,11.66l4.44,0l0,-13.22a8.26,8.26 0 0 0 -1.91,-5.82a7,7 0 0 0 -5.3,-2" class="cls-2"/>
   <path id="svg_7" fill="#13679a" d="m21.28011,29.61a13.09,13.09 0 0 1 -3,1a18.18,18.18 0 0 1 -3.68,0.35a14.6,14.6 0 0 1 -5.82,-1.15a14.19,14.19 0 0 1 -7.76,-7.78a15,15 0 0 1 -1.12,-5.77l0,-0.08a15.06,15.06 0 0 1 1.12,-5.75a14.35,14.35 0 0 1 7.75,-7.88a14.91,14.91 0 0 1 6,-1.17a18,18 0 0 1 3.6,0.33a14.35,14.35 0 0 1 4.56,1.73a13.39,13.39 0 0 0 -1,2a21.71,21.71 0 0 0 -0.72,2.33a15.1,15.1 0 0 0 -2,-1.18a9.89,9.89 0 0 0 -4.55,-1a9.41,9.41 0 0 0 -4,0.83a9.71,9.71 0 0 0 -3.13,2.25a10.17,10.17 0 0 0 -2.05,3.34a11.39,11.39 0 0 0 -0.72,4.07l0,0.08a11.62,11.62 0 0 0 0.72,4.09a10.5,10.5 0 0 0 2,3.38a9.62,9.62 0 0 0 3.14,2.27a9.41,9.41 0 0 0 4,0.83a9.92,9.92 0 0 0 4.68,-1a16,16 0 0 0 2,-1.38a20.84,20.84 0 0 0 0.94,2.35a11.87,11.87 0 0 0 1,1.68a15.15,15.15 0 0 1 -2.14,1.25" class="cls-2"/>
   <path id="svg_8" fill="#13679a" d="m49.35011,11.08l-2,2.8a11.63,11.63 0 1 1 -4.19,-4l2.15,-2.45a14.83,14.83 0 0 0 -19.4,21.9l0,0l0,0.18l-2.81,2.82l-0.82,-0.68l-10.16,9.88l2.9,3.16l10.21,-9.85l-0.68,-0.75l3.14,-3l0.12,0.1a14.86,14.86 0 0 0 24.51,-11.22a14.61,14.61 0 0 0 -3,-8.89" class="cls-2"/>
   <path id="svg_9" fill="#76a334" d="m29.07011,15.47a43.21,43.21 0 0 1 8.41,12.6s9.8,-19.55 16.74,-25.23c0,0 -5.58,2 -16.74,15.85c0,0 -5,-3.22 -8.41,-3.22" class="cls-1"/>
   <path id="svg_10" fill="#76a334" d="m170.43011,30.04a10.07,10.07 0 0 1 -5.28,-1.28a11.57,11.57 0 0 1 -3.48,-3.14l3.17,-3.29a10.91,10.91 0 0 0 2.48,2.37a5.38,5.38 0 0 0 3,0.84a4.05,4.05 0 0 0 3.15,-1.31a5.83,5.83 0 0 0 1.19,-4l0,-18l4.93,0l0,18.1a12.38,12.38 0 0 1 -0.66,4.26a8.29,8.29 0 0 1 -1.88,3a7.77,7.77 0 0 1 -2.89,1.82a11.19,11.19 0 0 1 -3.73,0.63z" class="cls-1"/>
   <path id="svg_11" fill="#76a334" d="m195.45011,29.65l0,-2.55a9,9 0 0 1 -2.7,2.12a8.58,8.58 0 0 1 -4,0.86a9.23,9.23 0 0 1 -2.81,-0.42a6.71,6.71 0 0 1 -2.33,-1.21a5.9,5.9 0 0 1 -2.21,-4.75l0,-0.08a6.68,6.68 0 0 1 0.63,-3a5.74,5.74 0 0 1 1.74,-2.11a7.48,7.48 0 0 1 2.65,-1.25a12.76,12.76 0 0 1 3.35,-0.41a19,19 0 0 1 3.18,0.23a19.9,19.9 0 0 1 2.53,0.63l0,-0.38a4.14,4.14 0 0 0 -1.31,-3.29a5.65,5.65 0 0 0 -3.78,-1.13a12.91,12.91 0 0 0 -3.13,0.35a21.56,21.56 0 0 0 -2.77,0.94l-1.29,-3.79a21.38,21.38 0 0 1 3.52,-1.25a17,17 0 0 1 4.34,-0.47q4.6,0 6.84,2.28a8.87,8.87 0 0 1 2.23,6.44l0,12.24l-4.68,0zm0.11,-8.65a12,12 0 0 0 -2.13,-0.58a13.58,13.58 0 0 0 -2.6,-0.24a6.13,6.13 0 0 0 -3.48,0.86a2.73,2.73 0 0 0 -1.25,2.35l0,0.08a2.6,2.6 0 0 0 1.15,2.27a5,5 0 0 0 2.84,0.78a7.16,7.16 0 0 0 2.17,-0.32a5.68,5.68 0 0 0 1.76,-0.87a4.07,4.07 0 0 0 1.15,-1.37a3.79,3.79 0 0 0 0.41,-1.78l-0.02,-1.18zm-2.38,-21l4.3,1.91l-4.77,4.5l-3.69,0l4.16,-6.41z" class="cls-1"/>
   <path id="svg_12" fill="#76a334" d="m205.77011,20.87l2,0l0,1.46a4.21,4.21 0 0 1 1.25,-1.17a3.08,3.08 0 0 1 1.77,-0.48a3.94,3.94 0 0 1 1.5,0.3a3.85,3.85 0 0 1 1.29,0.88a4.47,4.47 0 0 1 0.92,1.42a5.07,5.07 0 0 1 0.34,1.93l0,0a5.07,5.07 0 0 1 -0.34,1.93a4.21,4.21 0 0 1 -0.9,1.42a3.83,3.83 0 0 1 -1.31,0.88a4.08,4.08 0 0 1 -1.5,0.29a3.16,3.16 0 0 1 -1.78,-0.46a4.49,4.49 0 0 1 -1.17,-1.07l0,4l-2,0l-0.07,-11.33zm4.51,7.17a2.48,2.48 0 0 0 1,-0.2a2.55,2.55 0 0 0 0.74,-0.51a2.51,2.51 0 0 0 0.54,-0.88a3.32,3.32 0 0 0 0.2,-1.16l0,0a3.27,3.27 0 0 0 -0.2,-1.15a2.61,2.61 0 0 0 -0.54,-0.88a2.42,2.42 0 0 0 -0.79,-0.56a2.48,2.48 0 0 0 -1,-0.2a2.53,2.53 0 0 0 -1,0.2a2.35,2.35 0 0 0 -0.8,0.57a2.76,2.76 0 0 0 -0.56,0.88a3,3 0 0 0 -0.21,1.14l0,0a3,3 0 0 0 0.21,1.14a2.6,2.6 0 0 0 0.56,0.89a2.46,2.46 0 0 0 0.8,0.56a2.53,2.53 0 0 0 1.05,0.16z" class="cls-1"/>
   <path id="svg_13" fill="#76a334" d="m220.27011,29.74a3.63,3.63 0 0 1 -1,-0.13a2.11,2.11 0 0 1 -0.81,-0.43a1.85,1.85 0 0 1 -0.52,-0.79a3.27,3.27 0 0 1 -0.19,-1.21l0,-4.6l-1.1,0l0,-1.71l1.1,0l0,-2.4l2,0l0,2.4l2.35,0l0,1.71l-2.35,0l0,4.28a1.08,1.08 0 0 0 0.28,0.84a1.14,1.14 0 0 0 0.79,0.26a2.7,2.7 0 0 0 1.24,-0.3l0,1.67a2.88,2.88 0 0 1 -0.81,0.33a3.63,3.63 0 0 1 -0.98,0.08z" class="cls-1"/>
  </g>
 </g>
</svg>